# xmcd
#
# Track frame offsets: 
#        150
#        26350
#        41225
#        62197
#        96762
#        119392
#        136200
#        165690
#        182100
#        239847
#
# Disc length: 3972 seconds
#
# Revision: 0
# Processed by: cddbd v1.5.2PL0 Copyright (c) Steve Scherf et al.
# Submitted via: ExactAudioCopy v1.0b1
#
DISCID=8d0f820a
DTITLE=Bandallamas - Eye to Eye
DYEAR=2010
DGENRE=Rock
TTITLE0=I Love You
TTITLE1=Drift Away
TTITLE2=Native Man
TTITLE3=Steel Yourself
TTITLE4=Don't Look Down
TTITLE5=Novi
TTITLE6=Doubting
TTITLE7=Sylvie
TTITLE8=Trout Fishing
TTITLE9=Glissando
EXTD=
EXTT0=
EXTT1=
EXTT2=
EXTT3=
EXTT4=
EXTT5=
EXTT6=
EXTT7=
EXTT8=
EXTT9=
PLAYORDER=
